<?xml version="1.0" encoding="UTF-8" standalone="no"?>
<!DOCTYPE svg PUBLIC "-//W3C//DTD SVG 1.1//EN"
 "http://www.w3.org/Graphics/SVG/1.1/DTD/svg11.dtd">
<!-- Generated by graphviz version 2.48.0 (0)
 -->
<!-- Pages: 1 -->
<svg width="292pt" height="404pt"
 viewBox="0.00 0.00 292.42 404.00" xmlns="http://www.w3.org/2000/svg" xmlns:xlink="http://www.w3.org/1999/xlink">
<g id="graph0" class="graph" transform="scale(1 1) rotate(0) translate(4 400)">
<polygon fill="white" stroke="transparent" points="-4,4 -4,-400 288.42,-400 288.42,4 -4,4"/>
<!-- OFF -->
<g id="node1" class="node">
<title>OFF</title>
<ellipse fill="none" stroke="black" cx="47" cy="-378" rx="30.59" ry="18"/>
<text text-anchor="middle" x="47" y="-374.3" font-family="Times,serif" font-size="14.00">OFF</text>
</g>
<!-- IDLE -->
<g id="node2" class="node">
<title>IDLE</title>
<ellipse fill="none" stroke="black" cx="184" cy="-306" rx="34.39" ry="18"/>
<text text-anchor="middle" x="184" y="-302.3" font-family="Times,serif" font-size="14.00">IDLE</text>
</g>
<!-- OFF&#45;&gt;IDLE -->
<g id="edge1" class="edge">
<title>OFF&#45;&gt;IDLE</title>
<path fill="none" stroke="black" stroke-dasharray="1,5" d="M69.32,-365.6C91.5,-354.26 125.79,-336.74 151.1,-323.81"/>
<polygon fill="black" stroke="black" points="153,-326.77 160.31,-319.1 149.82,-320.54 153,-326.77"/>
</g>
<!-- LOCKED -->
<g id="node5" class="node">
<title>LOCKED</title>
<ellipse fill="none" stroke="black" cx="167" cy="-90" rx="51.99" ry="18"/>
<text text-anchor="middle" x="167" y="-86.3" font-family="Times,serif" font-size="14.00">LOCKED</text>
</g>
<!-- OFF&#45;&gt;LOCKED -->
<g id="edge6" class="edge">
<title>OFF&#45;&gt;LOCKED</title>
<path fill="none" stroke="black" stroke-dasharray="1,5" d="M39.8,-360.35C29.56,-319.61 20.29,-213.18 66,-144 77.79,-126.16 97.79,-113.6 116.97,-105.21"/>
<polygon fill="black" stroke="black" points="118.34,-108.43 126.28,-101.41 115.7,-101.94 118.34,-108.43"/>
</g>
<!-- PREWARM -->
<g id="node6" class="node">
<title>PREWARM</title>
<ellipse fill="none" stroke="black" cx="167" cy="-18" rx="61.99" ry="18"/>
<text text-anchor="middle" x="167" y="-14.3" font-family="Times,serif" font-size="14.00">PREWARM</text>
</g>
<!-- OFF&#45;&gt;PREWARM -->
<g id="edge13" class="edge">
<title>OFF&#45;&gt;PREWARM</title>
<path fill="none" stroke="black" stroke-dasharray="1,5" d="M37.71,-360.54C24.02,-334.66 0,-282.52 0,-235 0,-235 0,-235 0,-161 0,-97.9 70.06,-56.97 119.42,-35.96"/>
<polygon fill="black" stroke="black" points="120.77,-39.19 128.69,-32.14 118.11,-32.72 120.77,-39.19"/>
</g>
<!-- TRACKING -->
<g id="node3" class="node">
<title>TRACKING</title>
<ellipse fill="none" stroke="black" cx="184" cy="-234" rx="61.99" ry="18"/>
<text text-anchor="middle" x="184" y="-230.3" font-family="Times,serif" font-size="14.00">TRACKING</text>
</g>
<!-- IDLE&#45;&gt;TRACKING -->
<g id="edge2" class="edge">
<title>IDLE&#45;&gt;TRACKING</title>
<path fill="none" stroke="black" d="M178.12,-288.05C177.3,-280.35 177.06,-271.03 177.39,-262.36"/>
<polygon fill="black" stroke="black" points="180.89,-262.49 178.09,-252.28 173.91,-262.01 180.89,-262.49"/>
</g>
<!-- IDLE&#45;&gt;LOCKED -->
<g id="edge7" class="edge">
<title>IDLE&#45;&gt;LOCKED</title>
<path fill="none" stroke="black" stroke-dasharray="1,5" d="M205.01,-291.7C219.42,-282.85 237.17,-269.6 246,-252 253.17,-237.7 250.83,-231.25 246,-216 233.53,-176.62 203.69,-138.92 184.24,-115.41"/>
<polygon fill="black" stroke="black" points="186.92,-113.16 177.84,-107.71 181.54,-117.64 186.92,-113.16"/>
</g>
<!-- IDLE&#45;&gt;PREWARM -->
<g id="edge14" class="edge">
<title>IDLE&#45;&gt;PREWARM</title>
<path fill="none" stroke="black" stroke-dasharray="1,5" d="M214.58,-297.16C237.03,-289.62 265.97,-275.77 280,-252 288.13,-238.22 282.76,-231.76 280,-216 268.27,-148.97 266.48,-128.12 228,-72 220.03,-60.38 208.93,-49.72 198.38,-41.06"/>
<polygon fill="black" stroke="black" points="200.5,-38.28 190.48,-34.84 196.17,-43.78 200.5,-38.28"/>
</g>
<!-- TRACKING&#45;&gt;IDLE -->
<g id="edge3" class="edge">
<title>TRACKING&#45;&gt;IDLE</title>
<path fill="none" stroke="black" d="M189.91,-252.28C190.71,-260.03 190.94,-269.36 190.59,-278.01"/>
<polygon fill="black" stroke="black" points="187.09,-277.83 189.88,-288.05 194.08,-278.33 187.09,-277.83"/>
</g>
<!-- ACTIVE -->
<g id="node4" class="node">
<title>ACTIVE</title>
<ellipse fill="none" stroke="black" cx="130" cy="-162" rx="46.29" ry="18"/>
<text text-anchor="middle" x="130" y="-158.3" font-family="Times,serif" font-size="14.00">ACTIVE</text>
</g>
<!-- TRACKING&#45;&gt;ACTIVE -->
<g id="edge4" class="edge">
<title>TRACKING&#45;&gt;ACTIVE</title>
<path fill="none" stroke="black" d="M170.93,-216.05C164.43,-207.63 156.44,-197.28 149.26,-187.97"/>
<polygon fill="black" stroke="black" points="151.83,-185.57 142.95,-179.79 146.29,-189.84 151.83,-185.57"/>
</g>
<!-- TRACKING&#45;&gt;LOCKED -->
<g id="edge8" class="edge">
<title>TRACKING&#45;&gt;LOCKED</title>
<path fill="none" stroke="black" stroke-dasharray="1,5" d="M185.96,-215.8C187.6,-197.78 189.08,-168.7 185,-144 183.56,-135.28 180.87,-126.06 178,-117.8"/>
<polygon fill="black" stroke="black" points="181.23,-116.46 174.48,-108.3 174.67,-118.89 181.23,-116.46"/>
</g>
<!-- ACTIVE&#45;&gt;IDLE -->
<g id="edge5" class="edge">
<title>ACTIVE&#45;&gt;IDLE</title>
<path fill="none" stroke="black" d="M120.67,-179.95C111.79,-198.53 101.37,-228.8 113,-252 120.8,-267.57 135.59,-279.73 149.66,-288.45"/>
<polygon fill="black" stroke="black" points="148.31,-291.72 158.72,-293.69 151.81,-285.66 148.31,-291.72"/>
</g>
<!-- ACTIVE&#45;&gt;LOCKED -->
<g id="edge9" class="edge">
<title>ACTIVE&#45;&gt;LOCKED</title>
<path fill="none" stroke="black" stroke-dasharray="1,5" d="M138.96,-144.05C143.27,-135.89 148.55,-125.91 153.35,-116.82"/>
<polygon fill="black" stroke="black" points="156.55,-118.27 158.13,-107.79 150.36,-114.99 156.55,-118.27"/>
</g>
<!-- LOCKED&#45;&gt;OFF -->
<g id="edge10" class="edge">
<title>LOCKED&#45;&gt;OFF</title>
<path fill="none" stroke="black" stroke-dasharray="1,5" d="M135.09,-104.36C117.17,-112.75 96.19,-125.54 84,-144 41.89,-207.73 46.44,-303.07 48.36,-349.55"/>
<polygon fill="black" stroke="black" points="44.87,-349.88 48.74,-359.74 51.86,-349.62 44.87,-349.88"/>
</g>
<!-- LOCKED&#45;&gt;IDLE -->
<g id="edge12" class="edge">
<title>LOCKED&#45;&gt;IDLE</title>
<path fill="none" stroke="black" stroke-dasharray="1,5" d="M188.94,-106.57C213.18,-128.6 249.82,-171.22 264,-216 268.83,-231.25 271.17,-237.7 264,-252 255.33,-269.29 238.05,-282.38 221.65,-291.22"/>
<polygon fill="black" stroke="black" points="220.07,-288.1 212.68,-295.7 223.19,-294.36 220.07,-288.1"/>
</g>
<!-- LOCKED&#45;&gt;PREWARM -->
<g id="edge11" class="edge">
<title>LOCKED&#45;&gt;PREWARM</title>
<path fill="none" stroke="black" stroke-dasharray="1,5" d="M167,-71.7C167,-63.98 167,-54.71 167,-46.11"/>
<polygon fill="black" stroke="black" points="170.5,-46.1 167,-36.1 163.5,-46.1 170.5,-46.1"/>
</g>
</g>
</svg>
